<svg width="95" height="16" viewBox="0 0 95 16" fill="none" xmlns="http://www.w3.org/2000/svg">
<path d="M8.81929 2.34224L9.99262 4.6889C10.1526 5.01557 10.5793 5.3289 10.9393 5.3889L13.066 5.74224C14.426 5.9689 14.746 6.95557 13.766 7.9289L12.1126 9.58224C11.8326 9.86224 11.6793 10.4022 11.766 10.7889L12.2393 12.8356C12.6126 14.4556 11.7526 15.0822 10.3193 14.2356L8.32596 13.0556C7.96596 12.8422 7.37262 12.8422 7.00596 13.0556L5.01262 14.2356C3.58596 15.0822 2.71929 14.4489 3.09262 12.8356L3.56596 10.7889C3.65262 10.4022 3.49929 9.86224 3.21929 9.58224L1.56595 7.9289C0.592622 6.95557 0.905955 5.9689 2.26596 5.74224L4.39262 5.3889C4.74595 5.3289 5.17262 5.01557 5.33262 4.6889L6.50596 2.34224C7.14596 1.0689 8.18596 1.0689 8.81929 2.34224Z" fill="#FFE458" stroke="#FFE458" stroke-linecap="round" stroke-linejoin="round"/>
<path d="M28.8193 2.34224L29.9926 4.6889C30.1526 5.01557 30.5793 5.3289 30.9393 5.3889L33.066 5.74224C34.426 5.9689 34.746 6.95557 33.766 7.9289L32.1126 9.58224C31.8326 9.86224 31.6793 10.4022 31.766 10.7889L32.2393 12.8356C32.6126 14.4556 31.7526 15.0822 30.3193 14.2356L28.326 13.0556C27.966 12.8422 27.3726 12.8422 27.006 13.0556L25.0126 14.2356C23.586 15.0822 22.7193 14.4489 23.0926 12.8356L23.566 10.7889C23.6526 10.4022 23.4993 9.86224 23.2193 9.58224L21.566 7.9289C20.5926 6.95557 20.906 5.9689 22.266 5.74224L24.3926 5.3889C24.746 5.3289 25.1726 5.01557 25.3326 4.6889L26.506 2.34224C27.146 1.0689 28.186 1.0689 28.8193 2.34224Z" fill="#FFE458" stroke="#FFE458" stroke-linecap="round" stroke-linejoin="round"/>
<path d="M48.8193 2.34224L49.9926 4.6889C50.1526 5.01557 50.5793 5.3289 50.9393 5.3889L53.066 5.74224C54.426 5.9689 54.746 6.95557 53.766 7.9289L52.1126 9.58224C51.8326 9.86224 51.6793 10.4022 51.766 10.7889L52.2393 12.8356C52.6126 14.4556 51.7526 15.0822 50.3193 14.2356L48.326 13.0556C47.966 12.8422 47.3726 12.8422 47.006 13.0556L45.0126 14.2356C43.586 15.0822 42.7193 14.4489 43.0926 12.8356L43.566 10.7889C43.6526 10.4022 43.4993 9.86224 43.2193 9.58224L41.566 7.9289C40.5926 6.95557 40.906 5.9689 42.266 5.74224L44.3926 5.3889C44.746 5.3289 45.1726 5.01557 45.3326 4.6889L46.506 2.34224C47.146 1.0689 48.186 1.0689 48.8193 2.34224Z" fill="#FFE458" stroke="#FFE458" stroke-linecap="round" stroke-linejoin="round"/>
<path d="M68.8193 2.34224L69.9926 4.6889C70.1526 5.01557 70.5793 5.3289 70.9393 5.3889L73.066 5.74224C74.426 5.9689 74.746 6.95557 73.766 7.9289L72.1126 9.58224C71.8326 9.86224 71.6793 10.4022 71.766 10.7889L72.2393 12.8356C72.6126 14.4556 71.7526 15.0822 70.3193 14.2356L68.326 13.0556C67.966 12.8422 67.3726 12.8422 67.006 13.0556L65.0126 14.2356C63.586 15.0822 62.7193 14.4489 63.0926 12.8356L63.566 10.7889C63.6526 10.4022 63.4993 9.86224 63.2193 9.58224L61.566 7.9289C60.5926 6.95557 60.906 5.9689 62.266 5.74224L64.3926 5.3889C64.746 5.3289 65.1726 5.01557 65.3326 4.6889L66.506 2.34224C67.146 1.0689 68.186 1.0689 68.8193 2.34224Z" fill="#FFE458" stroke="#FFE458" stroke-linecap="round" stroke-linejoin="round"/>
<path d="M88.8193 2.34224L89.9926 4.6889C90.1526 5.01557 90.5793 5.3289 90.9393 5.3889L93.066 5.74224C94.426 5.9689 94.746 6.95557 93.766 7.9289L92.1126 9.58224C91.8326 9.86224 91.6793 10.4022 91.766 10.7889L92.2393 12.8356C92.6126 14.4556 91.7526 15.0822 90.3193 14.2356L88.326 13.0556C87.966 12.8422 87.3726 12.8422 87.006 13.0556L85.0126 14.2356C83.586 15.0822 82.7193 14.4489 83.0926 12.8356L83.566 10.7889C83.6526 10.4022 83.4993 9.86224 83.2193 9.58224L81.566 7.9289C80.5926 6.95557 80.906 5.9689 82.266 5.74224L84.3926 5.3889C84.746 5.3289 85.1726 5.01557 85.3326 4.6889L86.506 2.34224C87.146 1.0689 88.186 1.0689 88.8193 2.34224Z" fill="#FFE458" stroke="#FFE458" stroke-linecap="round" stroke-linejoin="round"/>
</svg>
