<svg width="224" height="41" viewBox="0 0 224 41" fill="none" xmlns="http://www.w3.org/2000/svg">
<path d="M19.9781 31C16.9389 31 14.5663 30.1765 12.8605 28.5294C11.1742 26.8824 10.3311 24.5196 10.3311 21.4412V10H16.0958V21.2647C16.0958 23.049 16.4389 24.3235 17.1252 25.0882C17.8311 25.8529 18.8016 26.2353 20.0369 26.2353C21.2722 26.2353 22.233 25.8529 22.9193 25.0882C23.6252 24.3235 23.9781 23.049 23.9781 21.2647V10H29.6252V21.4412C29.6252 24.5196 28.7722 26.8824 27.0663 28.5294C25.3801 30.1765 23.0173 31 19.9781 31Z" fill="#D93025"/>
<path d="M39.2761 30.5882H33.6291V10H38.3644L47.5408 21.0882V10H53.1585V30.5882H48.4232L39.2761 19.5V30.5882Z" fill="#D93025"/>
<path d="M57.3251 10H67.8251C70.5114 10 72.5212 10.5 73.8545 11.5C75.1878 12.5 75.8545 13.7941 75.8545 15.3824C75.8545 16.3824 75.6094 17.2647 75.1192 18.0294C74.6486 18.7941 73.9721 19.402 73.0898 19.8529C74.2663 20.2647 75.1878 20.902 75.8545 21.7647C76.5212 22.6078 76.8545 23.6667 76.8545 24.9412C76.8545 26.7255 76.1388 28.1176 74.7074 29.1176C73.2957 30.098 71.1976 30.5882 68.4133 30.5882H57.3251V26.4412H67.9427C70.0212 26.4412 71.0604 25.7353 71.0604 24.3235C71.0604 22.8922 70.0212 22.1765 67.9427 22.1765H57.3251V18.2059H67.0604C69.0604 18.2059 70.0604 17.5294 70.0604 16.1765C70.0604 14.8235 69.0604 14.1471 67.0604 14.1471H57.3251V10Z" fill="#D93025"/>
<path d="M98.8127 30.5882H92.6656L88.9009 25.0882H85.6656V30.5882H79.9009V20.6471H88.9303C90.1656 20.6471 91.0872 20.3824 91.695 19.8529C92.3029 19.3039 92.6068 18.549 92.6068 17.5882C92.6068 16.6275 92.3029 15.8824 91.695 15.3529C91.0872 14.8039 90.1656 14.5294 88.9303 14.5294H79.9009V10H89.2538C90.6656 10 91.9303 10.1765 93.048 10.5294C94.1852 10.8824 95.146 11.3922 95.9303 12.0588C96.7342 12.7059 97.3421 13.5 97.7538 14.4412C98.1852 15.3627 98.4009 16.4118 98.4009 17.5882C98.4009 19.1176 98.048 20.4314 97.3421 21.5294C96.6362 22.6275 95.6362 23.4804 94.3421 24.0882L98.8127 30.5882Z" fill="#D93025"/>
<path d="M105.055 30.5882H99.1725L108.29 10H113.937L123.055 30.5882H117.084L111.055 15.6176L105.055 30.5882Z" fill="#D93025"/>
<path d="M130.384 30.5882H124.737V10H129.472L138.648 21.0882V10H144.266V30.5882H139.531L130.384 19.5V30.5882Z" fill="#D93025"/>
<path d="M154.197 20.2941V26H157.903C159.688 26 161.119 25.5 162.197 24.5C163.276 23.5 163.815 22.098 163.815 20.2941C163.815 18.4902 163.276 17.0882 162.197 16.0882C161.119 15.0882 159.688 14.5882 157.903 14.5882H148.433V10H158.138C159.844 10 161.403 10.2451 162.815 10.7353C164.227 11.2059 165.433 11.8922 166.433 12.7941C167.433 13.6765 168.207 14.7549 168.756 16.0294C169.325 17.3039 169.609 18.7255 169.609 20.2941C169.609 21.8627 169.325 23.2843 168.756 24.5588C168.207 25.8333 167.433 26.9216 166.433 27.8235C165.433 28.7059 164.227 29.3922 162.815 29.8824C161.403 30.3529 159.844 30.5882 158.138 30.5882H148.433V20.2941H154.197Z" fill="#D93025"/>
<path d="M172.732 18H188.82V22.2941H172.732V18ZM172.732 10H188.82V14.4706H172.732V10ZM172.732 30.5882H188.82V26.1176H172.732V30.5882Z" fill="#D93025"/>
<path d="M198.258 20.2941V26H201.963C203.748 26 205.179 25.5 206.258 24.5C207.336 23.5 207.875 22.098 207.875 20.2941C207.875 18.4902 207.336 17.0882 206.258 16.0882C205.179 15.0882 203.748 14.5882 201.963 14.5882H192.493V10H202.199C203.905 10 205.463 10.2451 206.875 10.7353C208.287 11.2059 209.493 11.8922 210.493 12.7941C211.493 13.6765 212.267 14.7549 212.816 16.0294C213.385 17.3039 213.669 18.7255 213.669 20.2941C213.669 21.8627 213.385 23.2843 212.816 24.5588C212.267 25.8333 211.493 26.9216 210.493 27.8235C209.493 28.7059 208.287 29.3922 206.875 29.8824C205.463 30.3529 203.905 30.5882 202.199 30.5882H192.493V20.2941H198.258Z" fill="#D93025"/>
</svg>
