<svg width="14" height="15" viewBox="0 0 14 15" fill="none" xmlns="http://www.w3.org/2000/svg">
<path d="M10.4882 6.79417V9.1275C10.4882 9.27917 10.4823 9.425 10.4648 9.565C10.3307 11.14 9.40317 11.9217 7.69401 11.9217H7.46068C7.31484 11.9217 7.17483 11.9917 7.08733 12.1083L6.38734 13.0417C6.07818 13.4558 5.5765 13.4558 5.26734 13.0417L4.56733 12.1083C4.4915 12.0092 4.32234 11.9217 4.19401 11.9217H3.96068C2.09984 11.9217 1.1665 11.4608 1.1665 9.1275V6.79417C1.1665 5.085 1.95401 4.1575 3.52318 4.02334C3.66318 4.00584 3.80901 4 3.96068 4H7.69401C9.55484 4 10.4882 4.93334 10.4882 6.79417Z" stroke="#808080" stroke-width="0.875" stroke-miterlimit="10" stroke-linecap="round" stroke-linejoin="round"/>
<path d="M12.8218 4.4608V6.79413C12.8218 8.50913 12.0343 9.4308 10.4651 9.56496C10.4826 9.42496 10.4884 9.27913 10.4884 9.12746V6.79413C10.4884 4.9333 9.5551 3.99996 7.69427 3.99996H3.96094C3.80927 3.99996 3.66344 4.0058 3.52344 4.0233C3.6576 2.45413 4.5851 1.66663 6.29427 1.66663H10.0276C11.8884 1.66663 12.8218 2.59996 12.8218 4.4608Z" stroke="#808080" stroke-width="0.875" stroke-miterlimit="10" stroke-linecap="round" stroke-linejoin="round"/>
<path d="M7.87254 8.22917H7.87779" stroke="#808080" stroke-width="1.16667" stroke-linecap="round" stroke-linejoin="round"/>
<path d="M5.83055 8.22917H5.8358" stroke="#808080" stroke-width="1.16667" stroke-linecap="round" stroke-linejoin="round"/>
<path d="M3.78904 8.22917H3.79429" stroke="#808080" stroke-width="1.16667" stroke-linecap="round" stroke-linejoin="round"/>
</svg>
