<svg width="25" height="25" viewBox="0 0 25 25" fill="none" xmlns="http://www.w3.org/2000/svg">
<path d="M2.66895 2.5H4.40895C5.48895 2.5 6.33895 3.43 6.24895 4.5L5.41895 14.46C5.27895 16.09 6.56894 17.49 8.20894 17.49H18.8589C20.2989 17.49 21.5589 16.31 21.6689 14.88L22.2089 7.38C22.3289 5.72 21.0689 4.37 19.3989 4.37H6.48895" stroke="#1B1B1B" stroke-width="1.5" stroke-miterlimit="10" stroke-linecap="round" stroke-linejoin="round"/>
<path d="M16.9189 22.5C17.6093 22.5 18.1689 21.9404 18.1689 21.25C18.1689 20.5596 17.6093 20 16.9189 20C16.2286 20 15.6689 20.5596 15.6689 21.25C15.6689 21.9404 16.2286 22.5 16.9189 22.5Z" stroke="#1B1B1B" stroke-width="1.5" stroke-miterlimit="10" stroke-linecap="round" stroke-linejoin="round"/>
<path d="M8.91895 22.5C9.6093 22.5 10.1689 21.9404 10.1689 21.25C10.1689 20.5596 9.6093 20 8.91895 20C8.22859 20 7.66895 20.5596 7.66895 21.25C7.66895 21.9404 8.22859 22.5 8.91895 22.5Z" stroke="#1B1B1B" stroke-width="1.5" stroke-miterlimit="10" stroke-linecap="round" stroke-linejoin="round"/>
<path d="M9.66895 8.5H21.6689" stroke="#1B1B1B" stroke-width="1.5" stroke-miterlimit="10" stroke-linecap="round" stroke-linejoin="round"/>
</svg>
